<svg width="35" height="35" viewBox="0 0 35 35" fill="none" xmlns="http://www.w3.org/2000/svg">
<g clip-path="url(#clip0_1_2788)">
<path d="M21.0794 17.2542C22.0574 17.2542 22.8503 16.4588 22.8503 15.4777C22.8503 14.4965 22.0574 13.7012 21.0794 13.7012C20.1014 13.7012 19.3086 14.4965 19.3086 15.4777C19.3086 16.4588 20.1014 17.2542 21.0794 17.2542Z" fill="white"/>
<path d="M13.9954 17.2542C14.9734 17.2542 15.7663 16.4588 15.7663 15.4777C15.7663 14.4965 14.9734 13.7012 13.9954 13.7012C13.0174 13.7012 12.2246 14.4965 12.2246 15.4777C12.2246 16.4588 13.0174 17.2542 13.9954 17.2542Z" fill="white"/>
<path d="M33.0348 18.5478C33.0915 18.2493 33.1198 17.9367 33.1198 17.6098C33.1198 17.2829 33.0915 16.9702 33.0348 16.6718C32.6806 14.5257 31.1081 12.7777 29.054 12.1665C28.3031 10.5748 27.2406 9.18198 25.9515 8.03079C23.7131 6.02688 20.7665 4.81885 17.5365 4.81885C14.3065 4.81885 11.3598 6.02688 9.12146 8.03079C7.81812 9.18198 6.75562 10.589 6.01896 12.1665C3.96479 12.7777 2.39229 14.5115 2.03812 16.6718C1.98146 16.9702 1.95312 17.2829 1.95312 17.6098C1.95312 17.9367 1.98146 18.2493 2.03812 18.5478C2.39229 20.6938 3.96479 22.4419 6.01896 23.053C6.75562 24.6306 7.81812 26.0234 9.09312 27.1603C11.3315 29.1785 14.2923 30.4007 17.5365 30.4007C20.7806 30.4007 23.7415 29.1785 25.994 27.1603C27.269 26.0234 28.3315 24.6164 29.0681 23.053C31.1081 22.4419 32.6806 20.708 33.0348 18.5478ZM27.4531 20.4522C27.3115 20.4522 27.184 20.4238 27.0423 20.4096C26.759 21.3618 26.3481 22.2429 25.824 23.053C24.0531 25.7676 21.0073 27.5583 17.5365 27.5583C14.0656 27.5583 11.0198 25.7676 9.24896 23.053C8.72479 22.2429 8.31396 21.3618 8.03062 20.4096C7.88896 20.4238 7.76146 20.4522 7.61979 20.4522C6.06146 20.4522 4.78646 19.1731 4.78646 17.6098C4.78646 16.0464 6.06146 14.7674 7.61979 14.7674C7.76146 14.7674 7.88896 14.7958 8.03062 14.81C8.31396 13.8578 8.72479 12.9766 9.24896 12.1665C11.0198 9.45201 14.0656 7.66128 17.5365 7.66128C21.0073 7.66128 24.0531 9.45201 25.824 12.1665C26.3481 12.9766 26.759 13.8578 27.0423 14.81C27.184 14.7958 27.3115 14.7674 27.4531 14.7674C29.0115 14.7674 30.2865 16.0464 30.2865 17.6098C30.2865 19.1731 29.0115 20.4522 27.4531 20.4522ZM11.1615 20.4522C12.2381 22.9678 14.689 24.7159 17.5365 24.7159C20.384 24.7159 22.8348 22.9678 23.9115 20.4522H11.1615Z" fill="white"/>
</g>
<defs>
<clipPath id="clip0_1_2788">
<rect width="34" height="34.1091" fill="white" transform="translate(0.537109 0.555176)"/>
</clipPath>
</defs>
</svg>
