<svg width="32" height="31" viewBox="0 0 32 31" fill="none" xmlns="http://www.w3.org/2000/svg">
<path d="M19.7948 7.06862V10.1371H19.0406C18.6269 10.1371 18.2132 10.1269 17.8006 10.1371C17.6987 10.1283 17.5961 10.1414 17.4997 10.1754C17.4032 10.2094 17.3151 10.2636 17.2412 10.3343C17.1673 10.405 17.1093 10.4906 17.071 10.5855C17.0328 10.6803 17.0152 10.7822 17.0194 10.8844C16.9991 11.5281 17.0194 12.174 17.0194 12.8583H19.8624L19.5389 16.0259H17.0217V25.0013H13.2915V16.0643H11.5273V12.8741H13.2723C13.2723 12.4987 13.2633 12.1583 13.2723 11.8189C13.2609 11.2047 13.2918 10.5904 13.3648 9.98036C13.4437 9.18547 13.8155 8.44836 14.4079 7.91246C15.0003 7.37656 15.7708 7.08019 16.5696 7.08102C17.6315 7.01226 18.7024 7.06862 19.7981 7.06862" fill="black"/>
<path d="M0.175781 16.4674V14.5307C0.221999 14.152 0.262581 13.7721 0.31669 13.3944C0.712872 10.3828 2.00635 7.56021 4.0288 5.29385C5.4278 3.66636 7.15568 2.35366 9.09867 1.44221C11.0417 0.530755 13.1557 0.0412117 15.3015 0.00581396C18.1852 -0.114654 21.0393 0.627526 23.4991 2.13749C25.7911 3.44481 27.7032 5.3264 29.0473 7.59709C30.3914 9.86777 31.121 12.4493 31.1645 15.0876C31.2988 18.001 30.5499 20.8869 29.0159 23.3674C27.8883 25.3058 26.3484 26.9727 24.5052 28.25C22.662 29.5273 20.5606 30.3838 18.3497 30.7589C17.786 30.8649 17.2156 30.9179 16.6486 30.9968H14.7108C14.3332 30.9494 13.9533 30.9089 13.5768 30.8559C10.3304 30.4005 7.31078 28.9316 4.94847 26.6588C2.58617 24.386 1.00187 21.4252 0.421529 18.1989C0.31782 17.6262 0.259197 17.0445 0.180288 16.4674H0.175781ZM19.7948 7.0693C18.6991 7.0693 17.6282 7.01294 16.5663 7.0817C15.7675 7.08087 14.997 7.37724 14.4046 7.91314C13.8122 8.44905 13.4404 9.18615 13.3615 9.98105C13.2885 10.5911 13.2576 11.2054 13.2691 11.8196C13.2578 12.1578 13.2691 12.496 13.2691 12.8748H11.524V16.0649H13.286V25.0065H17.0161V16.03H19.5333L19.8568 12.8624H17.0138C17.0138 12.1781 16.9981 11.5322 17.0138 10.8885C17.0096 10.7863 17.0272 10.6844 17.0655 10.5895C17.1037 10.4947 17.1617 10.409 17.2356 10.3383C17.3095 10.2676 17.3976 10.2135 17.4941 10.1795C17.5906 10.1455 17.6932 10.1324 17.7951 10.1411C18.2088 10.1276 18.6225 10.1411 19.035 10.1411H19.7892L19.7948 7.0693Z" fill="white"/>
</svg>
