<svg width="31" height="31" viewBox="0 0 31 31" fill="none" xmlns="http://www.w3.org/2000/svg">
<path d="M4.22765e-06 15.1165C0.00335379 12.1218 0.894786 9.19536 2.56154 6.70737C4.2283 4.21937 6.59549 2.28158 9.3637 1.13912C12.1319 -0.00334308 15.1768 -0.299155 18.1131 0.289101C21.0495 0.877358 23.7454 2.32325 25.8599 4.4439C27.9744 6.56454 29.4124 9.26466 29.9922 12.2027C30.5719 15.1408 30.2672 18.1847 29.1167 20.9496C27.9662 23.7145 26.0216 26.076 23.5287 27.7356C21.0359 29.3951 18.1069 30.278 15.1122 30.2727C11.0993 30.264 7.25378 28.663 4.4203 25.8213C1.58682 22.9796 -0.00299207 19.1295 4.22765e-06 15.1165ZM5.81448 15.1165H5.78742C5.78742 16.2663 5.77953 17.4161 5.78742 18.5671C5.78634 19.0004 5.8161 19.4332 5.87648 19.8623C5.9576 20.716 6.2634 21.533 6.76277 22.2302C7.26214 22.9274 7.93726 23.4799 8.71946 23.8314C9.5715 24.2068 10.4939 24.3959 11.4249 24.386C13.7862 24.3973 16.1471 24.3973 18.5076 24.386C19.0215 24.389 19.5349 24.3513 20.0429 24.2733C20.9422 24.1794 21.7969 23.8344 22.5095 23.2779C23.2221 22.7214 23.7639 21.9757 24.0729 21.126C24.3531 20.3685 24.4925 19.5663 24.4844 18.7587C24.4844 16.4185 24.4844 14.0783 24.4844 11.7381C24.4874 11.2945 24.4572 10.8514 24.3942 10.4124C24.3093 9.50724 23.9717 8.64421 23.4197 7.92183C22.8678 7.19945 22.1238 6.64686 21.2728 6.32714C20.5173 6.03697 19.7147 5.88906 18.9055 5.89089C16.3928 5.87849 13.8812 5.8751 11.3685 5.89089C10.345 5.87803 9.33408 6.11769 8.42524 6.58867C7.64151 7.00826 6.98639 7.63275 6.52977 8.3955C6.07315 9.15826 5.83216 10.0307 5.83251 10.9197C5.74797 12.3163 5.8156 13.7221 5.8156 15.1244" fill="white"/>
<path d="M5.81429 15.1184C5.81429 13.7172 5.74665 12.3104 5.8312 10.9137C5.83084 10.0247 6.07183 9.15231 6.52845 8.38956C6.98507 7.62681 7.6402 7.00232 8.42393 6.58272C9.33273 6.11166 10.3437 5.87199 11.3672 5.88494C13.8799 5.86691 16.3915 5.87142 18.9042 5.88494C19.7134 5.88312 20.516 6.03103 21.2715 6.3212C22.1225 6.64091 22.8665 7.19351 23.4184 7.91589C23.9703 8.63826 24.308 9.5013 24.3929 10.4064C24.4561 10.8454 24.4863 11.2886 24.4831 11.7321C24.4913 14.0723 24.4913 16.4125 24.4831 18.7528C24.4912 19.5603 24.3518 20.3626 24.0716 21.12C23.7626 21.9697 23.2208 22.7154 22.5082 23.272C21.7956 23.8285 20.9409 24.1734 20.0416 24.2674C19.5336 24.3453 19.0202 24.383 18.5063 24.3801C16.145 24.3921 13.7841 24.3921 11.4236 24.3801C10.4926 24.39 9.57019 24.2009 8.71814 23.8255C7.93725 23.4744 7.26307 22.9231 6.76398 22.2274C6.26489 21.5317 5.95865 20.7165 5.87629 19.8643C5.81591 19.4352 5.78615 19.0023 5.78724 18.569C5.77596 17.4192 5.78724 16.2694 5.78724 15.1184H5.81429ZM15.1391 7.63109V7.60178C14.8967 7.60178 14.6544 7.60178 14.412 7.60178C13.1821 7.62883 11.9478 7.60178 10.7224 7.69985C10.0636 7.71054 9.42506 7.92967 8.8985 8.32581C8.37193 8.72195 7.9844 9.27472 7.79153 9.9048C7.61758 10.4302 7.52556 10.9792 7.51873 11.5326C7.48942 13.8638 7.50407 16.1939 7.50858 18.5217C7.51058 18.834 7.52977 19.146 7.56607 19.4562C7.61708 20.2777 7.97114 21.051 8.55966 21.6264C9.14819 22.2018 9.92931 22.5384 10.7517 22.5708C11.9173 22.6554 13.0908 22.661 14.2598 22.6576C16.0251 22.6576 17.7927 22.6576 19.558 22.5629C20.2181 22.559 20.8594 22.3428 21.3872 21.9464C21.915 21.5499 22.3012 20.9942 22.4889 20.3614C22.6656 19.815 22.7572 19.2447 22.7606 18.6705C22.7899 16.3708 22.7752 14.0701 22.7707 11.7693C22.7699 11.4265 22.7495 11.084 22.7099 10.7435C22.6518 10.0283 22.3623 9.35157 21.8851 8.81577C21.4078 8.27997 20.769 7.91433 20.0653 7.77425C19.6718 7.68609 19.2702 7.63887 18.867 7.63334C17.627 7.61531 16.387 7.62658 15.147 7.62658" fill="black"/>
<path d="M15.1392 7.63252C16.3792 7.63252 17.6192 7.62125 18.8592 7.63929C19.2635 7.64394 19.6662 7.69041 20.0609 7.77794C20.7646 7.91802 21.4035 8.28366 21.8807 8.81946C22.3579 9.35526 22.6475 10.032 22.7055 10.7472C22.7452 11.0877 22.7655 11.4302 22.7663 11.773C22.7663 14.0738 22.7866 16.3745 22.7573 18.6742C22.7536 19.2484 22.6616 19.8188 22.4845 20.3651C22.2968 20.9979 21.9106 21.5536 21.3828 21.9501C20.855 22.3465 20.2137 22.5627 19.5536 22.5666C17.7928 22.6658 16.0241 22.6568 14.2554 22.6613C13.0853 22.6613 11.9118 22.6613 10.7462 22.5745C9.9238 22.542 9.14268 22.2055 8.55415 21.6301C7.96563 21.0547 7.61157 20.2814 7.56056 19.4599C7.52442 19.1497 7.5056 18.8377 7.5042 18.5254C7.5042 16.1942 7.48504 13.8641 7.51435 11.5363C7.52133 10.9828 7.61373 10.4337 7.78827 9.90849C7.98115 9.27841 8.36868 8.72564 8.89524 8.3295C9.42181 7.93336 10.0603 7.71423 10.7192 7.70354C11.9445 7.6111 13.1778 7.63252 14.4087 7.60547C14.6511 7.60547 14.8935 7.60547 15.1347 7.60547V7.63591L15.1392 7.63252ZM15.1279 10.2196C14.1564 10.2214 13.2071 10.5109 12.3998 11.0514C11.5925 11.592 10.9634 12.3596 10.5917 13.2573C10.2201 14.1549 10.1226 15.1426 10.3115 16.0956C10.5004 17.0486 10.9673 17.9244 11.6533 18.6124C12.3393 19.3004 13.2137 19.7699 14.1661 19.9617C15.1186 20.1534 16.1065 20.0589 17.0053 19.6899C17.9041 19.3209 18.6735 18.694 19.2165 17.8884C19.7594 17.0827 20.0517 16.1343 20.0564 15.1627C20.0612 14.5135 19.9371 13.8697 19.6913 13.2688C19.4454 12.6679 19.0828 12.1217 18.6244 11.662C18.166 11.2022 17.6209 10.838 17.0207 10.5904C16.4205 10.3428 15.7772 10.2168 15.1279 10.2196ZM20.0879 11.2218C20.2819 11.2209 20.4712 11.1624 20.6319 11.0538C20.7926 10.9452 20.9174 10.7914 20.9906 10.6118C21.0638 10.4322 21.082 10.2349 21.0429 10.045C21.0039 9.855 20.9093 9.68089 20.7713 9.54471C20.6332 9.40853 20.4578 9.3164 20.2673 9.27999C20.0768 9.24358 19.8798 9.26453 19.7012 9.34019C19.5227 9.41585 19.3706 9.54281 19.2642 9.70498C19.1579 9.86716 19.1021 10.0572 19.1038 10.2512C19.1059 10.5103 19.2107 10.758 19.3952 10.94C19.5797 11.1219 19.8288 11.2233 20.0879 11.2218Z" fill="white"/>
<path d="M15.1309 10.2168C16.1023 10.2157 17.0524 10.5023 17.8612 11.0404C18.67 11.5785 19.3014 12.344 19.6758 13.2405C20.0502 14.1369 20.1507 15.1241 19.9648 16.0777C19.7789 17.0312 19.3148 17.9083 18.6311 18.5984C17.9474 19.2886 17.0747 19.7609 16.1229 19.9557C15.1712 20.1505 14.1831 20.0592 13.2832 19.6932C12.3833 19.3273 11.6119 18.7031 11.0662 17.8993C10.5206 17.0956 10.2251 16.1482 10.2171 15.1768C10.2101 14.5274 10.332 13.883 10.5759 13.2811C10.8198 12.6792 11.1807 12.1317 11.6378 11.6703C12.0949 11.2089 12.639 10.8429 13.2386 10.5934C13.8382 10.3439 14.4814 10.2159 15.1309 10.2168ZM11.9632 15.1509C11.9659 15.7789 12.1548 16.392 12.5061 16.9126C12.8573 17.4333 13.3551 17.838 13.9364 18.0756C14.5177 18.3133 15.1565 18.3732 15.7718 18.2477C16.3872 18.1222 16.9515 17.817 17.3934 17.3707C17.8352 16.9245 18.1348 16.3571 18.2542 15.7406C18.3735 15.124 18.3073 14.4858 18.0639 13.9069C17.8204 13.328 17.4108 12.8343 16.8867 12.4882C16.3626 12.1422 15.7476 11.9594 15.1196 11.9629C14.7029 11.9646 14.2906 12.0484 13.9063 12.2095C13.5221 12.3707 13.1733 12.6061 12.8802 12.9022C12.587 13.1983 12.3551 13.5494 12.1977 13.9352C12.0404 14.3211 11.9607 14.7342 11.9632 15.1509Z" fill="black"/>
<path d="M20.0893 11.219C19.8954 11.2181 19.7061 11.1596 19.5454 11.051C19.3847 10.9424 19.2599 10.7886 19.1867 10.609C19.1135 10.4294 19.0953 10.2321 19.1343 10.0422C19.1734 9.85219 19.2679 9.67809 19.406 9.54191C19.5441 9.40573 19.7195 9.31359 19.9099 9.27718C20.1004 9.24078 20.2974 9.26173 20.476 9.33738C20.6546 9.41304 20.8067 9.54 20.913 9.70218C21.0194 9.86435 21.0752 10.0544 21.0734 10.2484C21.073 10.3768 21.0471 10.504 20.9973 10.6224C20.9476 10.7409 20.8748 10.8483 20.7834 10.9385C20.6919 11.0287 20.5835 11.0999 20.4644 11.1481C20.3452 11.1962 20.2178 11.2203 20.0893 11.219Z" fill="black"/>
<path d="M11.9639 15.1504C11.9604 14.5225 12.1431 13.9076 12.489 13.3836C12.835 12.8595 13.3286 12.4499 13.9074 12.2064C14.4862 11.9629 15.1242 11.8965 15.7407 12.0157C16.3572 12.1349 16.9245 12.4342 17.3709 12.8758C17.8173 13.3175 18.1227 13.8816 18.2484 14.4968C18.3741 15.112 18.3146 15.7507 18.0773 16.3321C17.84 16.9134 17.4356 17.4113 16.9152 17.7628C16.3949 18.1143 15.782 18.3036 15.1541 18.3068C14.7373 18.3094 14.324 18.2299 13.9379 18.0726C13.5519 17.9154 13.2006 17.6835 12.9043 17.3903C12.608 17.0971 12.3724 16.7484 12.211 16.364C12.0497 15.9797 11.9657 15.5673 11.9639 15.1504Z" fill="white"/>
</svg>
