<svg width="35" height="35" viewBox="0 0 35 35" fill="none" xmlns="http://www.w3.org/2000/svg">
<g clip-path="url(#clip0_1_2763)">
<path d="M22.6992 16.0146C25.0509 16.0146 26.935 14.1102 26.935 11.7509C26.935 9.39173 25.0509 7.4873 22.6992 7.4873C20.3475 7.4873 18.4492 9.39173 18.4492 11.7509C18.4492 14.1102 20.3475 16.0146 22.6992 16.0146ZM11.3659 16.0146C13.7176 16.0146 15.6017 14.1102 15.6017 11.7509C15.6017 9.39173 13.7176 7.4873 11.3659 7.4873C9.01422 7.4873 7.11588 9.39173 7.11588 11.7509C7.11588 14.1102 9.01422 16.0146 11.3659 16.0146ZM11.3659 18.857C8.06505 18.857 1.44922 20.5198 1.44922 23.8313V27.3843H21.2826V23.8313C21.2826 20.5198 14.6667 18.857 11.3659 18.857ZM22.6992 18.857C22.2884 18.857 21.8209 18.8854 21.3251 18.9281C22.9684 20.1219 24.1159 21.7279 24.1159 23.8313V27.3843H32.6159V23.8313C32.6159 20.5198 26 18.857 22.6992 18.857Z" fill="url(#paint0_linear_1_2763)"/>
</g>
<defs>
<linearGradient id="paint0_linear_1_2763" x1="17.4066" y1="27.3843" x2="-0.747267" y2="24.5168" gradientUnits="userSpaceOnUse">
<stop stop-color="white"/>
</linearGradient>
<clipPath id="clip0_1_2763">
<rect width="34" height="34.1091" fill="white" transform="translate(0.0332031 0.380859)"/>
</clipPath>
</defs>
</svg>
