<svg width="34" height="35" viewBox="0 0 34 35" fill="none" xmlns="http://www.w3.org/2000/svg">
<g clip-path="url(#clip0_1_2773)">
<path d="M21.25 1.80176H12.75V4.64419H21.25V1.80176ZM15.5833 20.2775H18.4167V11.7503H15.5833V20.2775ZM26.9592 10.8833L28.9708 8.86519C28.3617 8.14037 27.6958 7.45819 26.9733 6.86128L24.9617 8.87941C22.7658 7.1171 20.0033 6.0654 17 6.0654C9.95917 6.0654 4.25 11.7929 4.25 18.8563C4.25 25.9198 9.945 31.6473 17 31.6473C24.055 31.6473 29.75 25.9198 29.75 18.8563C29.75 15.8434 28.7017 13.072 26.9592 10.8833ZM17 28.8048C11.5175 28.8048 7.08333 24.3564 7.08333 18.8563C7.08333 13.3562 11.5175 8.90783 17 8.90783C22.4825 8.90783 26.9167 13.3562 26.9167 18.8563C26.9167 24.3564 22.4825 28.8048 17 28.8048Z" fill="white"/>
</g>
<defs>
<clipPath id="clip0_1_2773">
<rect width="34" height="34.1091" fill="white" transform="translate(0 0.380859)"/>
</clipPath>
</defs>
</svg>
