<svg width="32" height="31" viewBox="0 0 32 31" fill="none" xmlns="http://www.w3.org/2000/svg">
<path d="M0.728516 16.4704V14.5326C0.746552 14.4447 0.769094 14.3579 0.782621 14.2699C0.88633 13.5721 0.946075 12.8665 1.09713 12.18C1.69846 9.43637 3.03419 6.90782 4.96148 4.86468C6.88878 2.82154 9.33515 1.34067 12.039 0.580407C14.7429 -0.179854 17.6025 -0.190908 20.3122 0.548428C23.0219 1.28776 25.4796 2.74968 27.4226 4.77786C29.3657 6.80603 30.7209 9.32419 31.3434 12.063C31.966 14.8019 31.8323 17.6585 30.9569 20.3273C30.0814 22.996 28.4971 25.3767 26.3732 27.2147C24.2493 29.0526 21.6659 30.2787 18.899 30.7619C18.3354 30.8577 17.765 30.9209 17.198 30.9998H15.2602C15.1953 30.9773 15.1285 30.9607 15.0607 30.9502C13.5086 30.8548 11.9831 30.5033 10.5459 29.9097C8.07223 28.9554 5.8892 27.3742 4.21111 25.3215C2.53303 23.2687 1.41758 20.8148 0.974255 18.2007C0.861528 17.6303 0.809679 17.0475 0.729642 16.4704H0.728516ZM17.9251 13.1179C17.9251 12.5542 17.9465 11.9906 17.9183 11.4269C17.9288 11.3116 17.9144 11.1954 17.876 11.0862C17.8377 10.977 17.7762 10.8773 17.6959 10.7938C17.6156 10.7104 17.5183 10.6453 17.4106 10.6028C17.3029 10.5603 17.1873 10.5415 17.0717 10.5477C16.0358 10.5003 14.9964 10.4868 13.9593 10.5116C13.661 10.5418 13.3776 10.6564 13.142 10.8419C12.8253 11.0673 12.8907 11.2748 13.2694 11.3852C13.4863 11.4247 13.6824 11.5393 13.8232 11.709C13.964 11.8787 14.0405 12.0925 14.0394 12.313C14.0766 13.0175 14.1025 13.7243 14.0867 14.43C14.0651 14.802 14.0031 15.1705 13.9018 15.5291C13.8982 15.5917 13.8762 15.6518 13.8386 15.7019C13.801 15.7521 13.7495 15.7901 13.6904 15.8111C13.6314 15.8322 13.5675 15.8353 13.5066 15.8203C13.4458 15.8052 13.3907 15.7725 13.3483 15.7264C13.1619 15.5896 12.995 15.428 12.8523 15.2461C12.0051 14.165 11.3215 12.9651 10.8232 11.6851C10.7512 11.4516 10.6025 11.2493 10.4012 11.1108C10.1999 10.9723 9.95781 10.9057 9.71401 10.9219C8.84713 10.9219 7.97913 10.9073 7.11113 10.9084C6.61287 10.9084 6.40433 11.2083 6.60386 11.6614C7.63752 14.2064 9.01796 16.5963 10.706 18.7632C11.4468 19.7301 12.4228 20.4913 13.541 20.9744C14.6592 21.4574 15.8824 21.6462 17.0943 21.5228C17.65 21.4777 17.8495 21.2658 17.9296 20.7157C17.9895 20.2866 18.0738 19.8613 18.1821 19.4418C18.1938 19.3473 18.2318 19.2579 18.2919 19.1839C18.3519 19.1099 18.4316 19.0543 18.5217 19.0234C18.6119 18.9925 18.7089 18.9875 18.8017 19.0091C18.8945 19.0307 18.9794 19.0779 19.0467 19.1454C19.2399 19.2908 19.4201 19.4526 19.5855 19.629C20.0004 20.0551 20.4028 20.4936 20.8165 20.922C21.1259 21.2778 21.5618 21.499 22.0317 21.5386C23.0891 21.5792 24.1499 21.5916 25.2061 21.5499C25.3376 21.5506 25.4669 21.5155 25.5799 21.4481C25.6928 21.3808 25.7853 21.2838 25.8471 21.1678C25.909 21.0517 25.9379 20.9209 25.9309 20.7896C25.9238 20.6582 25.8809 20.5313 25.807 20.4226C25.7562 20.3241 25.6993 20.2288 25.6367 20.1374C24.954 19.1859 24.1705 18.311 23.2999 17.5277C22.6235 16.8514 22.6032 16.644 23.1703 15.8537C23.2232 15.7805 23.283 15.7072 23.3315 15.6339C23.8748 14.8944 24.4407 14.1685 24.9502 13.4087C25.2871 12.909 25.5748 12.3778 25.8092 11.8226C26.0516 11.2432 25.8689 10.9693 25.2399 10.9501C24.1127 10.9163 22.9854 10.9377 21.8514 10.9411C21.7136 10.9379 21.5785 10.9791 21.4659 11.0584C21.3533 11.1377 21.2691 11.2511 21.2257 11.3819C21.1716 11.5115 21.1186 11.6423 21.0656 11.773C20.5527 13.1023 19.8047 14.3284 18.8573 15.3927C18.6927 15.5719 18.5496 15.8504 18.2486 15.75C17.9476 15.6497 17.9386 15.3363 17.9296 15.0849C17.907 14.4311 17.9217 13.7762 17.9217 13.1212" fill="white"/>
<path d="M17.925 13.1177C17.925 13.7726 17.9093 14.4276 17.9329 15.0814C17.942 15.3328 17.9521 15.645 18.252 15.7465C18.5518 15.848 18.6961 15.5673 18.8607 15.3892C19.808 14.3249 20.5561 13.0988 21.069 11.7695C21.122 11.6387 21.175 11.508 21.2291 11.3783C21.2725 11.2476 21.3567 11.1342 21.4693 11.0549C21.5819 10.9755 21.717 10.9344 21.8547 10.9375C22.982 10.9375 24.1093 10.9128 25.2433 10.9466C25.8723 10.9657 26.0549 11.2408 25.8126 11.8191C25.5781 12.3743 25.2905 12.9054 24.9536 13.4052C24.4441 14.1672 23.877 14.8909 23.3348 15.6304C23.2807 15.7037 23.2221 15.7758 23.1736 15.8502C22.61 16.6393 22.6213 16.8445 23.3033 17.5242C24.1739 18.3074 24.9574 19.1824 25.6401 20.1338C25.7027 20.2253 25.7595 20.3205 25.8103 20.419C25.8843 20.5278 25.9272 20.6547 25.9342 20.786C25.9413 20.9174 25.9124 21.0481 25.8505 21.1642C25.7886 21.2803 25.6962 21.3772 25.5832 21.4446C25.4703 21.5119 25.341 21.5471 25.2095 21.5463C24.1532 21.5869 23.0925 21.5745 22.0351 21.535C21.5652 21.4955 21.1293 21.2743 20.8199 20.9184C20.4073 20.4901 20.0037 20.0516 19.5889 19.6254C19.4235 19.4491 19.2432 19.2873 19.0501 19.1418C18.9828 19.0744 18.8979 19.0271 18.8051 19.0056C18.7122 18.984 18.6152 18.9889 18.5251 19.0198C18.4349 19.0508 18.3553 19.1064 18.2953 19.1804C18.2352 19.2544 18.1972 19.3437 18.1854 19.4383C18.0771 19.8578 17.9928 20.2831 17.9329 20.7121C17.8529 21.2622 17.6545 21.4742 17.0976 21.5193C15.8858 21.6427 14.6626 21.4539 13.5444 20.9708C12.4262 20.4878 11.4502 19.7266 10.7094 18.7597C9.02131 16.5927 7.64087 14.2028 6.60722 11.6579C6.4077 11.207 6.61625 10.9049 7.1145 10.9049C7.98137 10.9049 8.84937 10.9184 9.71737 10.9184C9.96117 10.9022 10.2033 10.9687 10.4046 11.1072C10.6059 11.2457 10.7546 11.4481 10.8266 11.6816C11.3248 12.9616 12.0085 14.1614 12.8557 15.2426C12.9984 15.4245 13.1653 15.5861 13.3517 15.7228C13.3941 15.769 13.4491 15.8017 13.51 15.8167C13.5708 15.8318 13.6348 15.8286 13.6938 15.8076C13.7529 15.7865 13.8044 15.7486 13.842 15.6984C13.8796 15.6483 13.9016 15.5881 13.9052 15.5256C14.0065 15.167 14.0685 14.7984 14.0901 14.4265C14.1058 13.7219 14.0799 13.014 14.0427 12.3094C14.0439 12.089 13.9674 11.8751 13.8266 11.7055C13.6858 11.5358 13.4897 11.4212 13.2728 11.3817C12.894 11.269 12.8286 11.0672 13.1454 10.8384C13.3809 10.6529 13.6644 10.5383 13.9627 10.5081C14.9998 10.4821 16.0391 10.4957 17.0751 10.5441C17.1907 10.538 17.3063 10.5568 17.414 10.5993C17.5217 10.6418 17.619 10.7069 17.6993 10.7903C17.7796 10.8737 17.841 10.9734 17.8794 11.0827C17.9178 11.1919 17.9322 11.3081 17.9217 11.4234C17.9487 11.987 17.9284 12.5507 17.9284 13.1143" fill="black"/>
</svg>
